Coordinates
version=1
nRows=31
nColumns=38
inDegrees=no

Units are S.I. units (second, meters, Newtons, ...)
If the header above contains a line with 'inDegrees', this indicates whether rotational values are in degrees (yes) or radians (no).

endheader
time	pelvis_tilt	pelvis_list	pelvis_rotation	pelvis_tx	pelvis_ty	pelvis_tz	hip_flexion_r	hip_adduction_r	hip_rotation_r	knee_angle_r	ankle_angle_r	subtalar_angle_r	mtp_angle_r	hip_flexion_l	hip_adduction_l	hip_rotation_l	knee_angle_l	ankle_angle_l	subtalar_angle_l	mtp_angle_l	lumbar_extension	lumbar_bending	lumbar_rotation	arm_flex_r	arm_add_r	arm_rot_r	elbow_flex_r	pro_sup_r	wrist_flex_r	wrist_dev_r	arm_flex_l	arm_add_l	arm_rot_l	elbow_flex_l	pro_sup_l	wrist_flex_l	wrist_dev_l
0	0.502901	1.45086	-2.22729	0.847132	1.64834	0.927766	-0.254797	-0.0632816	-0.341869	0.166784	0.243204	0	0	0.408193	-0.0204977	-0.308376	0.365015	0.0515994	0	0	-0.00798593	-0.0840442	0.194935	0.158695	-0.387566	-0.3088	1.79961	0.946557	0	0	0.278813	-0.331043	-0.1201	1.81934	0.751961	0	0
0.01	0.499893	1.45828	-2.22123	0.847945	1.63697	0.925187	-0.280375	-0.0509037	-0.30186	0.127238	0.23001	0	0	0.396672	-0.0107939	-0.319804	0.283813	0.0584822	0	0	-0.000517768	-0.0776889	0.192328	0.15955	-0.389796	-0.306954	1.79785	0.947014	0	0	0.27844	-0.33025	-0.120005	1.818	0.754014	0	0
0.02	0.537176	1.46534	-2.2558	0.849078	1.62523	0.92226	-0.281492	-0.0539634	-0.308081	0.137898	0.244107	0	0	0.385161	0.00511333	-0.32329	0.204535	0.0635545	0	0	0.0107077	-0.0748856	0.190423	0.159327	-0.392121	-0.305472	1.79585	0.946234	0	0	0.277319	-0.329972	-0.119349	1.81698	0.754796	0	0
0.03	0.58089	1.47024	-2.29725	0.850175	1.61316	0.919451	-0.283364	-0.0593626	-0.317013	0.151118	0.259639	0	0	0.369514	0.0234164	-0.319391	0.12764	0.0627489	0	0	0.0213131	-0.0737269	0.188932	0.159033	-0.394153	-0.303593	1.79323	0.945525	0	0	0.276018	-0.330482	-0.11821	1.8162	0.756365	0	0
0.04	0.617833	1.47364	-2.33273	0.851082	1.60084	0.916716	-0.286601	-0.0653312	-0.326683	0.165281	0.272803	0	0	0.352406	0.0406836	-0.311669	0.0604285	0.0557963	0	0	0.0307537	-0.0730356	0.188031	0.159133	-0.395713	-0.301606	1.78973	0.946608	0	0	0.27478	-0.332096	-0.116756	1.81611	0.758382	0	0
0.05	0.637215	1.4754	-2.35181	0.851719	1.58831	0.914153	-0.291929	-0.07112	-0.334526	0.180736	0.285567	0	0	0.336181	0.0548444	-0.306539	0.0104844	0.045538	0	0	0.0380292	-0.0724529	0.187979	0.159676	-0.396549	-0.299483	1.786	0.948718	0	0	0.272857	-0.335014	-0.115641	1.81754	0.76058	0	0
0.06	0.643294	1.47248	-2.35465	0.852085	1.57647	0.911749	-0.296761	-0.0701984	-0.325435	0.201912	0.288656	0	0	0.329844	0.0681004	-0.307137	0	0.0376956	0	0	0.0392292	-0.0758998	0.186437	0.161191	-0.396785	-0.297171	1.78265	0.95052	0	0	0.273759	-0.33904	-0.113175	1.81892	0.76144	0	0
0.07	0.631042	1.47026	-2.34389	0.852553	1.56344	0.909675	-0.306084	-0.0771728	-0.331331	0.219971	0.300176	0	0	0.321513	0.0756011	-0.314284	0	0.0358566	0	0	0.0414441	-0.0763117	0.188097	0.161925	-0.396659	-0.295148	1.77945	0.951447	0	0	0.273395	-0.342879	-0.111114	1.82026	0.760758	0	0
0.08	0.547687	1.47416	-2.26336	0.852365	1.54996	0.908068	-0.344697	-0.0690929	-0.298528	0.179059	0.288193	0	0	0.3401	0.0570888	-0.374034	0.0694132	0.0792054	0	0	0.0447549	-0.0670473	0.189541	0.160756	-0.395683	-0.294232	1.77672	0.950397	0	0	0.273128	-0.347501	-0.107677	1.82151	0.756233	0	0
0.09	0.580356	1.46757	-2.30288	0.852737	1.53658	0.906173	-0.331633	-0.096331	-0.335307	0.246384	0.315911	0	0	0.303173	0.0808214	-0.316603	0.0262882	0.0426302	0	0	0.0481606	-0.0728576	0.198433	0.158121	-0.396461	-0.294024	1.77508	0.950945	0	0	0.273262	-0.351274	-0.103185	1.82239	0.755451	0	0
0.1	0.584721	1.46215	-2.31206	0.852872	1.52308	0.90451	-0.335628	-0.112171	-0.342099	0.279246	0.325875	0	0	0.295235	0.0883818	-0.309709	0.045173	0.0375672	0	0	0.0507047	-0.0764888	0.205469	0.154548	-0.395738	-0.295588	1.7738	0.953072	0	0	0.273781	-0.355731	-0.0982199	1.82374	0.75383	0	0
0.11	0.612902	1.45579	-2.34646	0.853	1.50948	0.902893	-0.330164	-0.135544	-0.353013	0.328181	0.336041	0	0	0.290151	0.0972579	-0.311087	0.0602447	0.0254066	0	0	0.0552071	-0.0827805	0.213915	0.150643	-0.393837	-0.297076	1.77245	0.956028	0	0	0.272535	-0.360504	-0.0949401	1.82635	0.751597	0	0
0.12	0.708846	1.45863	-2.44559	0.853986	1.49634	0.898597	-0.282421	-0.179226	-0.405294	0.445988	0.366747	0	0	0.375295	0.0583116	-0.455563	0.240545	0.0789792	0	0	0.0721708	-0.0874998	0.220111	0.146244	-0.394862	-0.298189	1.77604	0.955551	0	0	0.273282	-0.365789	-0.0903647	1.83146	0.747265	0	0
0.13	0.651907	1.4389	-2.39435	0.85354	1.48208	0.901437	-0.334617	-0.173871	-0.339173	0.39714	0.327961	0	0	0.277565	0.112624	-0.330016	0.0825849	-0.0562679	0	0	0.060136	-0.0995217	0.226426	0.141985	-0.38463	-0.300372	1.76782	0.958971	0	0	0.270663	-0.369468	-0.0896891	1.82837	0.740911	0	0
0.14	0.667498	1.42966	-2.41184	0.854392	1.46845	0.901225	-0.33081	-0.195623	-0.332756	0.44423	0.318402	0	0	0.275491	0.117929	-0.346605	0.107049	-0.0972844	0	0	0.0608963	-0.108677	0.22949	0.13818	-0.379206	-0.302501	1.76537	0.959381	0	0	0.269701	-0.373062	-0.0881748	1.8291	0.740035	0	0
0.15	0.737119	1.42475	-2.48362	0.855364	1.45535	0.899397	-0.289774	-0.239694	-0.358591	0.55117	0.317912	0	0	0.321931	0.102811	-0.422005	0.219597	-0.0788337	0	0	0.0708738	-0.120069	0.233875	0.133768	-0.374454	-0.304361	1.76615	0.957792	0	0	0.269954	-0.378588	-0.0852252	1.83229	0.736458	0	0
0.16	0.776008	1.40605	-2.52392	0.85688	1.44189	0.900507	-0.2716	-0.278381	-0.346834	0.625885	0.289325	0	0	0.291782	0.136736	-0.374641	0.191975	-0.112518	0	0	0.0693128	-0.139897	0.237661	0.129025	-0.368361	-0.305485	1.76363	0.956238	0	0	0.269061	-0.381764	-0.084002	1.83214	0.73381	0	0
0.17	0.686245	1.38737	-2.43054	0.858123	1.42849	0.90465	-0.296619	-0.280586	-0.313391	0.641924	0.23503	0	0	0.25326	0.150019	-0.340312	0.194622	-0.120056	0	0	0.0461796	-0.145965	0.233584	0.125875	-0.364169	-0.306605	1.76081	0.955439	0	0	0.269875	-0.381418	-0.0838533	1.82965	0.732311	0	0
0.18	0.663713	1.3812	-2.40092	0.860367	1.41564	0.906248	-0.27529	-0.293916	-0.295824	0.711151	0.177045	0	0	0.268783	0.13892	-0.368192	0.275857	-0.0841258	0	0	0.0400922	-0.147318	0.227453	0.120559	-0.36446	-0.306703	1.76243	0.95344	0	0	0.269816	-0.380188	-0.0835724	1.8285	0.733751	0	0
0.19	0.659273	1.37364	-2.3892	0.862714	1.4031	0.907962	-0.243705	-0.313705	-0.279366	0.790221	0.104784	0	0	0.264792	0.144739	-0.363924	0.308694	-0.0692514	0	0	0.0349694	-0.151893	0.221036	0.115696	-0.365371	-0.305277	1.76466	0.95188	0	0	0.269275	-0.379818	-0.083779	1.82779	0.736976	0	0
0.2	0.657872	1.36908	-2.37956	0.865254	1.39079	0.909328	-0.205901	-0.329956	-0.258339	0.868389	0.0236385	0	0	0.259759	0.150759	-0.359927	0.333265	-0.0553089	0	0	0.0318925	-0.154003	0.213075	0.111544	-0.368089	-0.30252	1.76814	0.951183	0	0	0.267905	-0.379744	-0.0845939	1.8281	0.738817	0	0
0.21	0.655908	1.36606	-2.36955	0.867748	1.37867	0.910407	-0.164983	-0.34285	-0.233819	0.944033	-0.0558931	0	0	0.25135	0.157185	-0.356105	0.34887	-0.0444223	0	0	0.0295401	-0.154641	0.204588	0.10897	-0.371514	-0.299033	1.77204	0.951236	0	0	0.266195	-0.380905	-0.0853637	1.8295	0.737609	0	0
0.22	0.650719	1.3633	-2.35729	0.869987	1.36679	0.911337	-0.122401	-0.352087	-0.205445	1.01712	-0.131	0	0	0.238482	0.163625	-0.353103	0.356692	-0.035966	0	0	0.026576	-0.15481	0.196161	0.108657	-0.374109	-0.295956	1.77521	0.951726	0	0	0.26471	-0.383926	-0.0855845	1.83176	0.733169	0	0
0.23	0.6406	1.35896	-2.3402	0.872054	1.35521	0.912381	-0.0811481	-0.358884	-0.176165	1.08615	-0.200902	0	0	0.220396	0.171184	-0.348734	0.358545	-0.0270345	0	0	0.0205711	-0.155897	0.186917	0.110452	-0.375291	-0.292697	1.77856	0.949124	0	0	0.264563	-0.388234	-0.0857075	1.83425	0.72888	0	0
0.24	0.629571	1.35245	-2.32279	0.873912	1.34396	0.913699	-0.0424346	-0.364826	-0.146866	1.1477	-0.265169	0	0	0.198556	0.180432	-0.342258	0.35675	-0.0172212	0	0	0.0116492	-0.159005	0.177735	0.113892	-0.374399	-0.289884	1.78144	0.943097	0	0	0.266164	-0.393101	-0.0861016	1.83676	0.724153	0	0
0.25	0.617025	1.34351	-2.30479	0.87543	1.33293	0.915371	-0.00899897	-0.369555	-0.118512	1.20008	-0.310871	0	0	0.173339	0.190653	-0.333755	0.352828	-0.00730838	0	0	-0.000179065	-0.164304	0.169412	0.118129	-0.370775	-0.289041	1.78401	0.933729	0	0	0.269911	-0.398471	-0.0861277	1.83933	0.719803	0	0
0.26	0.604556	1.33385	-2.28733	0.876782	1.32194	0.917356	0.0202093	-0.372355	-0.0912511	1.24558	-0.326143	0	0	0.146154	0.200763	-0.323739	0.346808	0.00135161	0	0	-0.0125029	-0.169986	0.161758	0.121795	-0.365392	-0.290009	1.78658	0.92195	0	0	0.272912	-0.403634	-0.0854517	1.84332	0.713337	0	0
0.27	0.595413	1.3261	-2.273	0.878184	1.31091	0.919475	0.0503275	-0.373305	-0.0656538	1.29035	-0.302586	0	0	0.119835	0.209685	-0.312737	0.339283	0.00908383	0	0	-0.0219869	-0.174188	0.154237	0.123551	-0.359885	-0.290308	1.79015	0.903503	0	0	0.274016	-0.407423	-0.0851049	1.84735	0.703628	0	0
0.28	0.588757	1.32037	-2.26131	0.879675	1.29983	0.921762	0.0815456	-0.372904	-0.0421615	1.33242	-0.25623	0	0	0.0933728	0.217569	-0.302381	0.328434	0.0161152	0	0	-0.0285195	-0.176661	0.146658	0.124206	-0.355119	-0.289362	1.79327	0.8874	0	0	0.274057	-0.409186	-0.0867037	1.84883	0.701262	0	0
0.29	0.580034	1.31653	-2.24835	0.881193	1.28882	0.924276	0.112334	-0.36979	-0.0206108	1.36752	-0.210461	0	0	0.0658652	0.223445	-0.294818	0.31379	0.0225894	0	0	-0.0332313	-0.176582	0.139719	0.125463	-0.351801	-0.289273	1.79244	0.883934	0	0	0.27196	-0.409227	-0.0885899	1.84928	0.697692	0	0
0.3	0.567394	1.31446	-2.23198	0.882728	1.27801	0.926971	0.141893	-0.364036	-0.00201794	1.39293	-0.172146	0	0	0.0376283	0.226905	-0.28973	0.296233	0.0278875	0	0	-0.0370927	-0.173784	0.133258	0.125855	-0.35118	-0.286861	1.79147	0.880444	0	0	0.268336	-0.40752	-0.0911904	1.84918	0.693074	0	0
